HIERARCHY
ROOT Hips
{
	OFFSET 0.000000 0.000000 0.000000
	CHANNELS 6 Xposition Yposition Zposition Xrotation Yrotation Zrotation
	JOINT LeftUpLeg_virtual
	{
		OFFSET 0.000000 0.000000 0.000000
		CHANNELS 3 Xrotation Yrotation Zrotation
		JOINT LeftUpLeg
		{
			OFFSET 13.026900 -6.336304 -1.092800
			CHANNELS 3 Xrotation Yrotation Zrotation
			JOINT LeftLeg
			{
				OFFSET 0.524474 -46.096886 9.782700
				CHANNELS 3 Xrotation Yrotation Zrotation
				JOINT LeftFoot
				{
					OFFSET -0.524474 -53.427422 -12.948200
					CHANNELS 3 Xrotation Yrotation Zrotation
					JOINT LeftToeBase
					{
						OFFSET 0.192200 -14.009700 16.364100
						CHANNELS 3 Xrotation Yrotation Zrotation
						JOINT LeftToe_End
						{
							OFFSET -1.784700 -0.561700 9.474800
							CHANNELS 3 Xrotation Yrotation Zrotation
							End Site
							{
								OFFSET 0 0 0
							}
						}
					}
				}
			}
		}
	}
	JOINT RightUpLeg_virtual
	{
		OFFSET 0.000000 0.000000 0.000000
		CHANNELS 3 Xrotation Yrotation Zrotation
		JOINT RightUpLeg
		{
			OFFSET -12.883000 -6.336304 -1.092800
			CHANNELS 3 Xrotation Yrotation Zrotation
			JOINT RightLeg
			{
				OFFSET -0.524587 -46.096825 9.782800
				CHANNELS 3 Xrotation Yrotation Zrotation
				JOINT RightFoot
				{
					OFFSET 0.524587 -53.427383 -12.948300
					CHANNELS 3 Xrotation Yrotation Zrotation
					JOINT RightToeBase
					{
						OFFSET -0.192200 -14.009700 16.364100
						CHANNELS 3 Xrotation Yrotation Zrotation
						JOINT RightToe_End
						{
							OFFSET 1.784700 -0.561700 9.474800
							CHANNELS 3 Xrotation Yrotation Zrotation
							End Site
							{
								OFFSET 0 0 0
							}
						}
					}
				}
			}
		}
	}
	JOINT Spine_virtual
	{
		OFFSET 0.000000 0.000000 0.000000
		CHANNELS 3 Xrotation Yrotation Zrotation
		JOINT Spine
		{
			OFFSET 0.072000 7.257294 -0.789700
			CHANNELS 3 Xrotation Yrotation Zrotation
			JOINT Spine1
			{
				OFFSET 0.000000 12.508769 -0.658067
				CHANNELS 3 Xrotation Yrotation Zrotation
				JOINT Spine1_split
				{
					OFFSET 0.000000 12.508769 -0.658067
					CHANNELS 3 Xrotation Yrotation Zrotation
					JOINT Spine2
					{
						OFFSET 0.000000 12.508769 -0.658067
						CHANNELS 3 Xrotation Yrotation Zrotation
						JOINT Neck_virtual
						{
							OFFSET 0.000000 0.000000 0.000000
							CHANNELS 3 Xrotation Yrotation Zrotation
							JOINT Neck
							{
								OFFSET 0.000000 14.033295 7.520400
								CHANNELS 3 Xrotation Yrotation Zrotation
								JOINT Head
								{
									OFFSET 0.000000 8.198502 5.703100
									CHANNELS 3 Xrotation Yrotation Zrotation
									JOINT HeadTop_End
									{
										OFFSET 0.000000 17.760803 13.332701
										CHANNELS 3 Xrotation Yrotation Zrotation
										End Site
										{
											OFFSET 0 0 0
										}
									}
								}
							}
						}
						JOINT LeftShoulder_virtual
						{
							OFFSET 0.000000 0.000000 0.000000
							CHANNELS 3 Xrotation Yrotation Zrotation
							JOINT LeftShoulder
							{
								OFFSET 6.292450 5.785301 -0.669000
								CHANNELS 3 Xrotation Yrotation Zrotation
								JOINT LeftShoulder_split
								{
									OFFSET 6.292450 5.785301 -0.669000
									CHANNELS 3 Xrotation Yrotation Zrotation
									JOINT LeftArm
									{
										OFFSET 13.907140 -6.093903 1.965100
										CHANNELS 3 Xrotation Yrotation Zrotation
										JOINT LeftForeArm
										{
											OFFSET 34.140198 0.000000 0.000000
											CHANNELS 3 Xrotation Yrotation Zrotation
											JOINT LeftHand
											{
												OFFSET 40.960209 0.000000 0.000000
												CHANNELS 3 Xrotation Yrotation Zrotation
												End Site
												{
													OFFSET 0 0 0
												}
											}
										}
									}
								}
							}
						}
						JOINT RightShoulder_virtual
						{
							OFFSET 0.000000 0.000000 0.000000
							CHANNELS 3 Xrotation Yrotation Zrotation
							JOINT RightShoulder
							{
								OFFSET -6.292450 5.785301 -0.669000
								CHANNELS 3 Xrotation Yrotation Zrotation
								JOINT RightShoulder_split
								{
									OFFSET -6.292450 5.785301 -0.669000
									CHANNELS 3 Xrotation Yrotation Zrotation
									JOINT RightArm
									{
										OFFSET -13.907140 -6.093903 1.965100
										CHANNELS 3 Xrotation Yrotation Zrotation
										JOINT RightForeArm
										{
											OFFSET -34.140198 0.000000 0.000000
											CHANNELS 3 Xrotation Yrotation Zrotation
											JOINT RightHand
											{
												OFFSET -40.960209 0.000000 0.000000
												CHANNELS 3 Xrotation Yrotation Zrotation
												End Site
												{
													OFFSET 0 0 0
												}
											}
										}
									}
								}
							}
						}
					}
				}
			}
		}
	}
}
MOTION
Frames: 8
Frame Time: 0.03333333
-1.602075 94.331123 -9.584148 0.000000 0.000000 0.000000 5.382110 -22.958769 7.172120 -61.602234 15.269899 35.042422 43.342567 -25.367210 3.324100 12.316784 -4.300794 -17.667427 -0.177189 -4.895296 -0.311255 0.000000 0.000000 0.000000 2.453536 -17.863526 6.532370 -27.169980 0.268317 -25.115965 52.236535 9.777277 -4.509194 -19.277253 -12.348800 40.633844 1.415288 0.425822 -7.063568 0.000000 0.000000 0.000000 0.919859 -6.968553 5.869696 13.802976 10.550209 -0.351160 11.910282 4.493836 -4.667403 0.172416 -1.542592 0.444732 0.000000 0.000000 0.000000 10.652429 5.981566 -2.644284 -30.807958 36.842546 37.131295 -20.934183 10.813291 8.736650 0.000000 0.000000 0.000000 4.185174 2.783126 -2.636706 -2.562508 -5.114658 9.866598 2.779423 -3.043397 -1.307305 -25.323085 21.207177 -58.509313 -2.870912 -56.771460 1.678987 0.000000 0.000000 0.000000 2.741020 1.656208 -1.499406 -7.124970 -1.869886 -2.201854 -23.362819 0.149974 2.400655 3.941622 28.548891 43.274672 -25.072923 38.743271 13.983306 0.000000 0.000000 0.000000 
-1.552738 94.587128 -11.033749 0.000000 0.000000 0.000000 5.609473 -23.486703 7.259114 -61.541931 15.653192 35.393528 42.855496 -25.527921 2.968446 11.833979 -3.287175 -16.973334 0.506930 -4.962433 -0.310726 0.000000 0.000000 0.000000 2.449491 -17.816098 6.515918 -28.063236 0.825996 -25.008292 52.414793 9.584887 -4.191601 -18.991165 -12.423854 38.921662 2.858566 0.400120 -6.688550 0.000000 0.000000 0.000000 0.744092 -7.811172 5.971761 13.706112 10.332663 -0.656887 12.132339 4.212661 -4.647766 0.118420 -1.484994 0.416629 0.000000 0.000000 0.000000 10.463096 5.799445 -2.591237 -31.291521 37.180394 37.201626 -20.804871 12.721447 7.847414 0.000000 0.000000 0.000000 3.961520 2.653667 -2.519129 -2.633980 -4.738200 9.887617 1.502043 -3.390979 -1.187963 -24.574356 21.762881 -57.611512 -2.908250 -55.222274 1.904604 0.000000 0.000000 0.000000 2.607701 1.452398 -1.499903 -6.769553 -1.096521 -2.006698 -22.901395 0.296996 2.510092 1.529028 27.674475 45.854745 -25.229691 38.981215 14.311878 0.000000 0.000000 0.000000 
-1.336442 94.801376 -12.511234 0.000000 0.000000 0.000000 5.880497 -25.761650 7.611329 -60.532668 16.466502 35.855990 41.975184 -25.446770 2.884607 10.946620 -1.134671 -18.108711 0.933539 -5.014398 -0.537715 0.000000 0.000000 0.000000 2.665772 -20.711611 6.827751 -30.940829 2.616792 -24.416943 52.620594 9.821629 -4.130007 -17.296190 -11.032518 37.415045 3.214781 0.296793 -6.828762 0.000000 0.000000 0.000000 1.072401 -10.573958 6.209705 13.621214 9.834099 -1.112995 12.363779 3.778405 -4.602221 0.102339 -1.494070 0.390451 0.000000 0.000000 0.000000 10.368843 5.462463 -2.540495 -31.113755 38.241085 36.925977 -21.636595 17.156983 7.614081 0.000000 0.000000 0.000000 3.797497 2.406403 -2.491043 -2.631144 -3.918750 9.449813 0.265319 -4.125137 -1.657083 -23.893296 22.568866 -56.293224 -0.422697 -53.141638 4.355264 0.000000 0.000000 0.000000 2.575167 1.153480 -1.506715 -6.279106 -0.517729 -1.787200 -22.572739 -0.584664 1.503661 -1.342465 27.808951 48.156163 -25.819107 40.049719 15.422287 0.000000 0.000000 0.000000 
-1.233116 95.046341 -13.897160 0.000000 0.000000 0.000000 6.318191 -29.694562 8.278996 -58.420268 17.829613 36.339311 40.766162 -24.830741 2.924326 10.026323 2.123894 -20.510177 1.081697 -5.070453 -0.933242 0.000000 0.000000 0.000000 3.336656 -25.797293 7.512112 -35.252532 5.382522 -23.052411 52.695203 10.340049 -4.310956 -14.650088 -8.443493 35.639350 2.699772 0.093968 -7.431102 0.000000 0.000000 0.000000 1.957666 -14.930199 6.680547 13.484554 9.111198 -1.643130 12.553713 3.183980 -4.549356 0.057492 -1.447847 0.376724 0.000000 0.000000 0.000000 10.413121 4.978729 -2.518559 -30.311331 39.881608 36.296616 -23.414566 23.687810 8.194239 0.000000 0.000000 0.000000 3.702903 2.029647 -2.585437 -2.516380 -2.724980 8.604531 -0.839096 -5.047900 -2.659118 -23.096805 23.641421 -55.112042 3.863422 -50.863258 8.213534 0.000000 0.000000 0.000000 2.584280 0.749192 -1.527755 -5.611166 -0.116322 -1.596920 -22.360468 -1.926043 -0.014487 -4.878426 28.967676 49.818225 -26.629173 41.685621 17.147443 0.000000 0.000000 0.000000 
-1.366472 95.398300 -15.339245 0.000000 0.000000 0.000000 7.069984 -35.045291 9.259702 -55.337998 19.858640 37.069352 39.718557 -23.507103 3.033907 9.362776 6.420471 -23.488206 1.321155 -5.163508 -1.409173 0.000000 0.000000 0.000000 4.553896 -32.297062 8.597130 -40.452929 8.508414 -20.635977 52.225638 10.826846 -4.568849 -11.412613 -5.133892 33.208014 2.484195 -0.251484 -8.468467 0.000000 0.000000 0.000000 3.290529 -20.607886 7.446257 13.240138 8.263144 -2.107760 12.704983 2.402081 -4.502932 0.020019 -1.399022 0.370953 0.000000 0.000000 0.000000 10.548579 4.307946 -2.538146 -28.896085 42.012323 35.274765 -25.896744 31.667130 9.677557 0.000000 0.000000 0.000000 3.706457 1.474406 -2.806726 -2.252617 -1.299717 7.488467 -2.042616 -5.770840 -3.377030 -21.969172 25.087905 -54.472213 9.140751 -48.662113 12.666337 0.000000 0.000000 0.000000 2.616098 0.194343 -1.589380 -4.753560 0.066555 -1.543196 -21.634532 -3.280436 -1.592497 -9.472546 31.084116 50.566513 -27.556258 43.577741 19.425608 0.000000 0.000000 0.000000 
-1.711715 95.870827 -16.614681 0.000000 0.000000 0.000000 8.252274 -41.186341 10.561317 -51.479009 22.698657 38.043034 38.904539 -21.385312 3.098552 8.648841 11.436525 -26.154596 1.491600 -5.325172 -1.779891 0.000000 0.000000 0.000000 6.157392 -39.560353 10.019450 -46.083628 11.331366 -17.197018 51.139587 11.155750 -4.769383 -7.868767 -1.444547 30.195751 3.251234 -0.739516 -9.936594 0.000000 0.000000 0.000000 4.928892 -27.186002 8.542291 12.856048 7.345830 -2.353260 12.841427 1.376971 -4.478188 -0.005905 -1.444014 0.328009 0.000000 0.000000 0.000000 10.765526 3.398155 -2.600796 -26.983204 44.424640 33.858351 -28.745213 40.344425 11.996715 0.000000 0.000000 0.000000 3.844746 0.679492 -3.131731 -1.837302 0.160903 6.279496 -2.540562 -5.499234 -3.685729 -20.162152 26.830750 -54.650106 14.874863 -47.037235 17.189745 0.000000 0.000000 0.000000 2.716371 -0.590903 -1.706355 -3.697358 0.016696 -1.793273 -20.790193 -4.438427 -2.792263 -15.375480 33.679355 50.546747 -28.274381 45.169957 21.936218 0.000000 0.000000 0.000000 
-2.237771 96.335327 -17.904148 0.000000 0.000000 0.000000 10.285153 -47.581639 12.461028 -47.300054 26.448784 39.244870 38.314978 -18.611111 3.017309 7.494260 16.579335 -27.850045 1.365092 -5.607662 -1.920991 0.000000 0.000000 0.000000 8.477647 -46.930472 11.947493 -51.598104 13.404980 -13.142935 49.426398 11.463633 -4.926181 -4.276597 2.469049 26.991089 4.852002 -1.296343 -11.874851 0.000000 0.000000 0.000000 7.041242 -34.188621 10.086986 12.320095 6.412932 -2.234787 13.052667 0.070743 -4.468165 -0.047502 -1.601162 0.272027 0.000000 0.000000 0.000000 11.068056 2.244957 -2.711625 -24.665104 46.960375 31.961150 -31.418440 48.950552 14.642594 0.000000 0.000000 0.000000 4.212564 -0.399980 -3.506546 -1.283701 1.416050 5.082221 -2.668163 -4.600178 -3.697516 -17.203156 28.626009 -55.767142 20.367119 -45.944637 21.213867 0.000000 0.000000 0.000000 2.916000 -1.643335 -1.857338 -2.476095 -0.361389 -2.319271 -19.590422 -5.400225 -3.189069 -22.122617 36.223656 49.793066 -28.755475 46.530326 24.586099 0.000000 0.000000 0.000000 
-2.885356 96.734482 -19.212467 0.000000 0.000000 0.000000 13.180426 -53.386903 15.049950 -43.546517 30.737415 40.549751 38.248837 -15.845340 2.918417 6.001582 20.767177 -28.714139 0.318969 -6.033990 -1.684243 0.000000 0.000000 0.000000 11.992783 -53.586816 14.768910 -56.592284 14.460373 -8.924458 47.103829 11.724844 -5.039670 -0.918237 6.386988 24.137697 6.601371 -1.838898 -14.276800 0.000000 0.000000 0.000000 9.874982 -40.882913 12.245725 11.723410 5.473492 -1.723389 13.370696 -1.468759 -4.427140 -0.020272 -1.770124 0.264950 0.000000 0.000000 0.000000 11.411392 0.857806 -2.805119 -22.053769 49.345231 29.569398 -33.082216 57.085280 16.737116 0.000000 0.000000 0.000000 4.827845 -1.739866 -3.840796 -0.644839 2.223919 3.987698 -2.506446 -3.752363 -3.241934 -13.029931 30.016311 -57.628929 25.441418 -45.834507 24.643179 0.000000 0.000000 0.000000 3.269202 -2.954541 -2.012986 -1.114059 -1.017086 -3.056235 -17.981310 -6.181650 -2.879532 -28.614319 38.214044 48.099640 -29.195002 47.965079 27.373940 0.000000 0.000000 0.000000 
